<svg xmlns="http://www.w3.org/2000/svg" viewBox="0 0 134 200"><defs><linearGradient id="a" x1="57.15" x2="57.15" y1="5.81" y2="168.7" gradientUnits="userSpaceOnUse"><stop offset="0" stop-color="#f6f2ff" stop-opacity="0"/><stop offset=".04" stop-color="#f1eeff" stop-opacity=".03"/><stop offset=".48" stop-color="#bdc8ff" stop-opacity=".39"/><stop offset=".82" stop-color="#9cb1ff" stop-opacity=".65"/><stop offset="1" stop-color="#90a8ff" stop-opacity=".8"/></linearGradient><linearGradient id="b" x1="-.31" x2="114.2" y1="1355.44" y2="1355.44" gradientTransform="matrix(1 0 0 -1 0 1508.17)" gradientUnits="userSpaceOnUse"><stop offset="0" stop-color="#7079cc"/><stop offset="1" stop-color="#8c9aca"/></linearGradient><linearGradient id="c" x1="-.31" x2="114.6" y1="1369.76" y2="1369.76" gradientTransform="matrix(1 0 0 -1 0 1508.17)" gradientUnits="userSpaceOnUse"><stop offset="0" stop-color="#a5c3ff"/><stop offset="1" stop-color="#cacbff"/></linearGradient></defs><path fill="url(#a)" d="M114.6 138.28V0H-.31v138.39Z" data-name="Platforms and glow" opacity=".35" style="isolation:isolate"/><path fill="#e0e0e0" d="M114.69 166.73 57.42 200-.22 166.73l57.27-33.31Z" opacity=".3"/><path fill="url(#b)" d="m114.2 152.76-57.07 33.15-57.44-33.15 57.07-33.2Z" opacity=".1" style="isolation:isolate"/><path fill="url(#c)" d="M57.4 171.75-.31 138.39l57.39-33.31 57.52 33.22Z" style="isolation:isolate"/><path fill="#fff" d="m57 105.08 57.6 33.22-2.9 1.7-57.52-33.27Zm-.43 1.92a1.08 1.08 0 0 0 .93 0 .29.29 0 0 0 0-.55 1.08 1.08 0 0 0-.93 0c-.23.15-.23.38 0 .55m1.71 1a1.06 1.06 0 0 0 .92 0c.28-.14.28-.42 0-.55a1.06 1.06 0 0 0-.92 0c-.28.11-.28.34 0 .55m1.66 1a1.06 1.06 0 0 0 .92 0 .29.29 0 0 0 0-.56 1.13 1.13 0 0 0-.92 0c-.28.09-.28.32 0 .56" opacity=".3" style="isolation:isolate"/><path fill="#fff" d="M66.25 119.13c.37.23.37.55 0 .74l-.79.46a1.29 1.29 0 0 1-1.29 0l-11.56-6.68a.39.39 0 0 1 0-.74l.79-.46a1.29 1.29 0 0 1 1.29 0ZM47.13 154.89c.37.23.37.55 0 .73l-.92.51a1.29 1.29 0 0 1-1.29 0l-20.86-12c-.37-.23-.37-.55 0-.73l.92-.51a1.4 1.4 0 0 1 1.29 0ZM50.22 128.44c.37.23.37.55 0 .73l-.78.47a1.43 1.43 0 0 1-1.29 0L36.59 123a.38.38 0 0 1 0-.73l.78-.46a1.4 1.4 0 0 1 1.29 0ZM79.05 131.16c.37.23.37.55 0 .73l-.92.51a1.6 1.6 0 0 1-1.29 0L56 120.37a.38.38 0 0 1 0-.73l.92-.51a1.43 1.43 0 0 1 1.29 0ZM64.82 136.87c.37.23.37.55 0 .74l-.92.5a1.4 1.4 0 0 1-1.29 0l-11.52-6.63a.39.39 0 0 1 0-.74l.93-.51a1.43 1.43 0 0 1 1.29 0ZM75.5 138.39c.37.23.37.55 0 .74l-.92.5a1.4 1.4 0 0 1-1.29 0l-20.86-12c-.37-.23-.37-.55 0-.74l.92-.51a1.29 1.29 0 0 1 1.29 0ZM29.86 140.28c.37.23.37.55 0 .74l-.78.46a1.29 1.29 0 0 1-1.29 0l-7.32-4.24c-.37-.23-.37-.56 0-.74l.78-.46a1.6 1.6 0 0 1 1.29 0ZM60 143.32c.37.23.37.55 0 .74l-.92.5a1.4 1.4 0 0 1-1.29 0l-20.86-12a.39.39 0 0 1 0-.74l.92-.51a1.43 1.43 0 0 1 1.29 0ZM50.68 147.65c.37.23.37.55 0 .74l-.92.51a1.43 1.43 0 0 1-1.29 0l-20.86-12a.39.39 0 0 1 0-.74l.92-.5a1.53 1.53 0 0 1 1.29 0ZM62.15 149.22c.37.23.37.55 0 .74l-.92.5a1.4 1.4 0 0 1-1.29 0l-20.87-12a.39.39 0 0 1 0-.74l.92-.51a1.43 1.43 0 0 1 1.29 0ZM49.25 151.48c.37.23.37.55 0 .73l-.92.51a1.43 1.43 0 0 1-1.29 0l-16.3-9.4a.39.39 0 0 1 0-.74l.92-.5a1.53 1.53 0 0 1 1.29 0ZM68.73 148.39c.37.23.37.55 0 .74l-.78.46a1.43 1.43 0 0 1-1.29 0l-5.11-3c-.37-.23-.37-.56 0-.74l.78-.46a1.29 1.29 0 0 1 1.29 0Z" opacity=".8"/></svg>